# AST/ASF file generated using VICON BodyLanguage
# -----------------------------------------------
:version 1.10
:name VICON
:units
  mass 1.0
  length 0.45
  angle deg
:documentation
   .ast/.asf automatically generated from VICON data using
   VICON BodyBuilder and BodyLanguage model FoxedUp or BRILLIANT.MOD
:root
   order TX TY TZ RX RY RZ
   axis XYZ
   position 0 0 0  
   orientation 0 0 0 
:bonedata
  begin
     id 1 
     name lhipjoint
     direction 0.78388 -0.462562 0.414208 
     length 3.01181 
     axis 0 0 0  XYZ
  end
  begin
     id 2 
     name lfemur
     direction 0.34202 -0.939693 0  
     length 6.04673  
     axis 0 0 20  XYZ
    dof rx ry rz
    limits (-160.0 20.0)
           (-70.0 70.0)
           (-60.0 70.0)
  end
  begin
     id 3 
     name ltibia
     direction 0.34202 -0.939693 0   
     length 7.211   
     axis 0 0 20   XYZ
    dof rx
    limits (-10.0 170.0)
  end
  begin
     id 4 
     name lfoot
     direction 0.121887 -0.334882 0.934344   
     length 2.13567   
     axis -90 7.62852e-016 20   XYZ
    dof rx rz
    limits (-45.0 90.0)
           (-70.0 20.0)
  end
  begin
     id 5 
     name ltoes
     direction 1.53555e-011 -4.2179e-011 1   
     length 1.05957   
     axis -90 7.62852e-016 20   XYZ
    dof rx
    limits (-90.0 20.0)
  end
  begin
     id 6 
     name rhipjoint
     direction -0.769387 -0.475875 0.426129   
     length 2.92756  
     axis 0 0 0  XYZ 
  end
  begin
     id 7 
     name rfemur
     direction -0.34202 -0.939693 0   
     length 6.35468   
     axis 0 0 -20   XYZ
    dof rx ry rz
    limits (-160.0 20.0)
           (-70.0 70.0)
           (-70.0 60.0)
  end
  begin
     id 8 
     name rtibia
     direction -0.34202 -0.939693 0   
     length 7.37886   
     axis 0 0 -20   XYZ
    dof rx
    limits (-10.0 170.0)
 end
 begin
     id 9 
     name rfoot
     direction -0.101763 -0.279592 0.954711   
     length 2.21478  
     axis -90 -7.62852e-016 -20   XYZ
    dof rx rz
    limits (-45.0 90.0)
           (-20.0 70.0)
  end
  begin
     id 10 
     name rtoes
     direction -1.53494e-011 -4.21851e-011 1   
     length 1.10506   
     axis -90 -7.62852e-016 -20   XYZ
    dof rx
    limits (-90.0 20.0)
  end
  begin
     id 11 
     name lowerback
     direction 0.00747405 0.999267 0.0375481   
     length 2.13259   
     axis 0 0 0   XYZ
    dof rx ry rz
    limits (-20.0 45.0)
           (-30.0 30.0)
           (-30.0 30.0)
  end
  begin
     id 12 
     name upperback
     direction 0.00661626 0.996177 0.0871029   
     length 2.10528   
     axis 0 0 0   XYZ
    dof rx ry rz
    limits (-20.0 45.0)
           (-30.0 30.0)
           (-30.0 30.0)
  end
  begin
     id 13 
     name thorax
     direction 0.00320659 0.997679 0.0680167   
     length 2.11338   
     axis 0 0 0   XYZ
    dof rx ry rz
    limits (-20.0 45.0)
           (-30.0 30.0)
           (-30.0 30.0)
  end
  begin
     id 14 
     name lowerneck
     direction 0.0374841 0.973033 0.227602   
     length 1.42765   
     axis 0 0 0   XYZ
    dof rx ry rz
    limits (-20.0 45.0)
           (-30.0 30.0)
           (-30.0 30.0)
  end
  begin
     id 15 
     name upperneck
     direction 0.00481585 0.989155 -0.146795   
     length 1.47593   
     axis 0 0 0   XYZ
    dof rx ry rz
    limits (-20.0 45.0)
           (-30.0 30.0)
           (-30.0 30.0)
  end
  begin
     id 16
     name head
     direction -0.00292522 0.997206 -0.0746423  
     length 1.48116  
     axis 0 0 0   XYZ
    dof rx ry rz
    limits (-20.0 45.0)
           (-30.0 30.0)
           (-30.0 30.0)
  end
  begin
     id 17 
     name lclavicle
     direction 0.951444 0.305606 0.0368784  
     length 3.01855  
     axis 0 0 0   XYZ
    dof ry rz
    limits (-20.0 10.0)
           (0.0 20.0)
  end
  begin
     id 18 
     name lhumerus
     direction 1 -4.48977e-011 2.61664e-027   
     length 5.52731   
     axis 180 -30 -90   XYZ
    dof rx ry rz
    limits (-60.0 90.0)
           (-90.0 90.0)
           (-90.0 90.0)
  end
  begin
     id 19
     name lradius
     direction 1 -4.48944e-011 8.22157e-027   
     length 3.11059   
     axis 180 -30 -90   XYZ
    dof rx
    limits (-10.0 170.0)
  end
  begin
     id 20
     name lwrist
     direction 1 -4.48976e-011 1.5779e-026   
     length 1.5553   
     axis -1.15221e-014 90 90   XYZ
    dof ry
    limits (-180.0 0.0)
 end
  begin
     id 21 
     name lhand
     direction 1 -4.49025e-011 3.1558e-026   
     length 0.419626   
     axis -2.01367e-014 90 90   XYZ
    dof rx rz
    limits (-90.0 90.0)
           (-45.0 45.0)
  end
  begin
     id 22 
     name lfingers
     direction 1 -4.4904e-011 6.31161e-026   
     length 0.338313   
     axis -4.02734e-014 90 90   XYZ
    dof rx
    limits (0.0 90.0)
  end
  begin
     id 23
     name lthumb
     direction 0.707107 -6.35004e-011 0.707107   
     length 0.485752   
     axis -90 45 2.85299e-015   XYZ
    dof rx rz
    limits (-45.0 45.0)
           (-45.0 45.0)
  end
  begin
     id 24 
     name rclavicle
     direction -0.968876 0.223791 0.105816   
     length 3.04177  
     axis 0 0 0   XYZ 
    dof ry rz
    limits (-10.0 20.0)
           (-20.0 0.0)
  end
  begin
     id 25 
     name rhumerus
     direction -1 -4.48962e-011 -1.01384e-027  
     length 5.25396   
     axis 180 30 90   XYZ
    dof rx ry rz
    limits (-90.0 60.0)
           (-90.0 90.0)
           (-90.0 90.0)
  end
  begin
     id 26 
     name rradius
     direction -1 -4.48955e-011 8.88542e-027   
     length 3.10567   
     axis 180 30 90   XYZ
    dof rx
    limits (-10.0 170.0)
  end
  begin
     id 27 
     name rwrist
     direction -1 -4.48994e-011 1.5779e-026   
     length 1.55283   
     axis -1.15221e-014 -90 -90   XYZ
    dof ry
    limits (-180.0 0.0)
  end
  begin
     id 28
     name rhand
     direction -1 -4.48891e-011 3.1558e-026   
     length 0.498676   
     axis -2.01367e-014 -90 -90   XYZ
    dof rx rz
    limits (-90.0 90.0)
           (-45.0 45.0)
  end
  begin
     id 29
     name rfingers
     direction -1 -4.48972e-011 6.31161e-026   
     length 0.402045   
     axis -4.02734e-014 -90 -90   XYZ
    dof rx
    limits (0.0 90.0)
  end
  begin
     id 30
     name rthumb
     direction -0.707107 -6.34849e-011 0.707107   
     length 0.577259   
     axis -90 -45 -2.85299e-015   XYZ
    dof rx rz
    limits (-45.0 45.0)
           (-45.0 45.0)
  end
:hierarchy
  begin
    root lhipjoint rhipjoint lowerback
    lhipjoint lfemur
    lfemur ltibia
    ltibia lfoot
    lfoot ltoes
    rhipjoint rfemur
    rfemur rtibia
    rtibia rfoot
    rfoot rtoes
    lowerback upperback
    upperback thorax
    thorax lowerneck lclavicle rclavicle
    lowerneck upperneck
    upperneck head
    lclavicle lhumerus
    lhumerus lradius
    lradius lwrist
    lwrist lhand lthumb
    lhand lfingers
    rclavicle rhumerus
    rhumerus rradius
    rradius rwrist
    rwrist rhand rthumb
    rhand rfingers
  end

#!OML:ASF H:\Pregnant\Project 1\Capture day 1\Session 1\femalepreg.ASF
:FULLY-SPECIFIED
:DEGREES
48
root 7.31456 0.807121 26.5461 72.6907 -37.4922 178.439
lowerback 23.1013 -0.857803 13.0873
upperback 2.56249 1.70708 -2.03997
thorax -9.58299 0.138495 -10.3775
lowerneck -14.577 20.4469 19.7605
upperneck 22.769 29.9746 -18.7159
head 16.7375 11.6062 -4.16041
rclavicle 3.65764e-014 -7.39976e-014
rhumerus -47.1756 5.44352 -70.3881
rradius 22.0823
rwrist 11.0952
rhand -4.69267 -9.4429
rfingers 7.12502
rthumb 21.0887 -38.3161
lclavicle 3.65764e-014 -7.39976e-014
lhumerus -65.8732 -57.4242 103.515
lradius 38.058
lwrist 53.8173
lhand 1.08324 22.5633
lfingers 7.12502
lthumb 26.6275 50.7109
rfemur -47.2028 -15.8588 -10.2937
rtibia 142.192
rfoot 14.9073 27.2703
rtoes 32.8301
lfemur 24.9246 -16.5295 -17.2259
ltibia -3.97569e-015
lfoot 33.1101 -15.0863
ltoes 10.2619
49
root 7.31174 0.810094 26.5517 72.6167 -37.4974 178.667
lowerback 22.9824 -0.911579 13.095
upperback 2.55936 1.62233 -2.04966
thorax -9.5453 0.101585 -10.3629
lowerneck -14.6636 20.4739 19.7667
upperneck 22.8197 30.0038 -18.6652
head 16.7743 11.6149 -4.12494
rclavicle -6.59965e-014 2.14687e-014
rhumerus -47.1731 5.51039 -70.3947
rradius 22.082
rwrist 11.0616
rhand -4.72075 -9.44561
rfingers 7.12502
rthumb 21.0617 -38.3218
lclavicle -6.59965e-014 2.14687e-014
lhumerus -65.2785 -57.0097 102.823
lradius 37.8916
lwrist 53.21
lhand 1.47787 21.8702
lfingers 7.12502
lthumb 27.0051 49.9598
rfemur -47.0599 -15.8181 -10.3483
rtibia 142.125
rfoot 14.8417 27.3669
rtoes 32.5267
lfemur 24.7949 -16.6921 -17.2768
ltibia -7.95139e-015
lfoot 33.38 -14.7324
ltoes 11.1335
50
root 7.30988 0.813184 26.557 72.5536 -37.4989 178.907
lowerback 22.841 -0.961333 13.0884
upperback 2.554 1.53719 -2.05469
thorax -9.49881 0.0659929 -10.3336
lowerneck -14.7619 20.5016 19.7693
upperneck 22.8737 30.033 -18.6112
head 16.8137 11.6228 -4.08672
rclavicle -1.90833e-014 5.47652e-014
rhumerus -47.1702 5.58271 -70.4032
rradius 22.0845
rwrist 11.0178
rhand -4.75493 -9.45442
rfingers 7.12502
rthumb 21.0289 -38.3343
lclavicle -1.90833e-014 5.47652e-014
lhumerus -64.6242 -56.5591 102.066
lradius 37.7204
lwrist 52.5639
lhand 1.88646 21.1813
lfingers 7.12502
lthumb 27.396 49.2097
rfemur -46.9231 -15.8155 -10.4112
rtibia 142.061
rfoot 14.7899 27.4499
rtoes 32.205
lfemur 24.6411 -16.8691 -17.3097
ltibia -3.65764e-014
lfoot 33.7183 -14.2895
ltoes 11.9076
51
root 7.30873 0.816396 26.562 72.4971 -37.4961 179.152
lowerback 22.6869 -1.00645 13.073
upperback 2.54833 1.45486 -2.05551
thorax -9.44539 0.0328005 -10.2947
lowerneck -14.8707 20.5282 19.7675
upperneck 22.9307 30.0599 -18.5556
head 16.8549 11.6288 -4.04725
rclavicle 2.14687e-014 -1.30452e-013
rhumerus -47.1687 5.65529 -70.4114
rradius 22.0895
rwrist 10.9669
rhand -4.79449 -9.46892
rfingers 7.12502
rthumb 20.9909 -38.353
lclavicle 2.14687e-014 -1.30452e-013
lhumerus -63.9253 -56.0922 101.261
lradius 37.5571
lwrist 51.9219
lhand 2.29213 20.5451
lfingers 7.12502
lthumb 27.7839 48.5115
rfemur -46.7905 -15.828 -10.4697
rtibia 142
rfoot 14.7462 27.5163
rtoes 31.8641
lfemur 24.4749 -17.0546 -17.3252
ltibia -2.38542e-015
lfoot 34.1158 -13.7826
ltoes 12.5395
52
root 7.30802 0.819737 26.5669 72.4434 -37.4891 179.395
lowerback 22.5294 -1.04632 13.0542
upperback 2.54382 1.37846 -2.05258
thorax -9.38732 0.00302968 -10.2511
lowerneck -14.9872 20.5518 19.7606
upperneck 22.9897 30.082 -18.4997
head 16.8967 11.632 -4.00799
rclavicle 3.97569e-014 2.78299e-015
rhumerus -47.1707 5.72444 -70.4178
rradius 22.0967
rwrist 10.9107
rhand -4.83887 -9.48796
rfingers 7.12502
rthumb 20.9482 -38.3768
lclavicle 3.97569e-014 2.78299e-015
lhumerus -63.1951 -55.6282 100.424
lradius 37.4128
lwrist 51.3249
lhand 2.67641 20.0063
lfingers 7.12502
lthumb 28.1513 47.9128
rfemur -46.6602 -15.8344 -10.5128
rtibia 141.939
rfoot 14.7031 27.5661
rtoes 31.5045
lfemur 24.3068 -17.2433 -17.3248
ltibia 2.62396e-014
lfoot 34.5635 -13.2444
ltoes 13.0129
53
root 7.30754 0.823202 26.5716 72.3891 -37.4787 179.629
lowerback 22.3766 -1.08035 13.0354
upperback 2.54146 1.31054 -2.04632
thorax -9.32694 -0.0224766 -10.2066
lowerneck -15.1083 20.5709 19.7483
upperneck 23.05 30.0977 -18.4448
head 16.938 11.632 -3.97025
rclavicle 5.24792e-014 5.85421e-014
rhumerus -47.1775 5.78673 -70.42
rradius 22.1053
rwrist 10.8519
rhand -4.88752 -9.50955
rfingers 7.12502
rthumb 20.9015 -38.4035
lclavicle 5.24792e-014 5.85421e-014
lhumerus -62.4427 -55.1812 99.57
lradius 37.2952
lwrist 50.802
lhand 3.02425 19.5954
lfingers 7.12502
lthumb 28.4837 47.4468
rfemur -46.5306 -15.8181 -10.5333
rtibia 141.878
rfoot 14.6515 27.6019
rtoes 31.1258
lfemur 24.1452 -17.4306 -17.3109
ltibia 3.18055e-015
lfoot 35.0551 -12.7089
ltoes 13.3421
